{"title":"Hey Arnold! Season 1 (DVDRIP)","uid":5885368,"size":3798552097,"categoryP":"video","categoryS":"tv_shows","magnet":"?xt=urn:btih:978b43f5323dfc8756113659da3c050d2d8e899b&amp;dn=Hey+Arnold%21+Season+1+%28DVDRIP%29&amp;tr=udp%3A%2F%2Ftracker.openbittorrent.com%3A80&amp;tr=udp%3A%2F%2Fopen.demonii.com%3A1337&amp;tr=udp%3A%2F%2Ftracker.coppersurfer.tk%3A6969&amp;tr=udp%3A%2F%2Fexodus.desync.com%3A6969","seeders":1,"leechers":0,"uploader":"iqeiqe","files":21,"time":1287038600,"description":"This is season 1 of Hey Arnold in an .avi format. All files in this torrent are Dvdrip and were encoded using XviD. Credit goes to the encoder.\n &lt;a href=&quot;\nhttp://img816.imageshack.us/img816/4449/vlcsnap2010101213h33m07.png&quot; rel=&quot;nofollow&quot; target=&quot;_NEW&quot;&gt;\nhttp://img816.imageshack.us/img816/4449/vlcsnap2010101213h33m07.png&lt;/a&gt; &lt;a href=&quot;\nhttp://img716.imageshack.us/img716/4585/vlcsnap2010101213h35m40.png&quot; rel=&quot;nofollow&quot; target=&quot;_NEW&quot;&gt;\nhttp://img716.imageshack.us/img716/4585/vlcsnap2010101213h35m40.png&lt;/a&gt; &lt;a href=&quot;\nhttp://img524.imageshack.us/img524/1466/vlcsnap2010101213h35m31.png&quot; rel=&quot;nofollow&quot; target=&quot;_NEW&quot;&gt;\nhttp://img524.imageshack.us/img524/1466/vlcsnap2010101213h35m31.png&lt;/a&gt; &lt;a href=&quot;\nhttp://img833.imageshack.us/img833/1738/vlcsnap2010101213h34m55.png&quot; rel=&quot;nofollow&quot; target=&quot;_NEW&quot;&gt;\nhttp://img833.imageshack.us/img833/1738/vlcsnap2010101213h34m55.png&lt;/a&gt;\n\n\nID : 0\nFormat : MPEG-4 Visual\nFormat profile : Advanced Simple@L5\nFormat settings, BVOP : Yes\nFormat settings, QPel : No\nFormat settings, GMC : No warppoints\nFormat settings, Matrix : Default (H.263)\nMuxing mode : Packed bitstream\nCodec ID : XVID\nCodec ID/Hint : XviD\nDuration : 23mn 38s\nBit rate : 932 Kbps\nWidth : 576 pixels\nHeight : 432 pixels\nDisplay aspect ratio : 4:3\nFrame rate : 29.970 fps\nColor space : YUV\nChroma subsampling : 4:2:0\nBit depth : 8 bits\nScan type : Progressive\nBits/(Pixel*Frame) : 0.125\nStream size : 158 MiB (87%)\nWriting library : XviD 1.2.0.dev47 (UTC 2006-11-01)\n\nAudio\nID : 1\nFormat : MPEG Audio\nFormat version : Version 1\nFormat profile : Layer 3\nMode : Joint stereo\nMode extension : MS Stereo\nCodec ID : 55\nCodec ID/Hint : MP3\nDuration : 23mn 38s\nBit rate mode : Constant\nBit rate : 128 Kbps\nChannel(s) : 2 channels\nSampling rate : 48.0 KHz\nStream size : 21.6 MiB (12%)\nAlignment : Split accross interleaves\nInterleave, duration : 33 ms (1.00 video frame)\nInterleave, preload duration : 500 ms ","torrent":{"xt":"urn:btih:978b43f5323dfc8756113659da3c050d2d8e899b","amp;dn":"Hey+Arnold%21+Season+1+%28DVDRIP%29","amp;tr":["udp%3A%2F%2Ftracker.openbittorrent.com%3A80","udp%3A%2F%2Fopen.demonii.com%3A1337","udp%3A%2F%2Ftracker.coppersurfer.tk%3A6969","udp%3A%2F%2Fexodus.desync.com%3A6969"],"infoHash":"978b43f5323dfc8756113659da3c050d2d8e899b","infoHashBuffer":{"type":"Buffer","data":[151,139,67,245,50,61,252,135,86,17,54,89,218,60,5,13,45,142,137,155]},"announce":[],"urlList":[]}}